<svg xmlns="http://www.w3.org/2000/svg" version="1.1" xmlns:xlink="http://www.w3.org/1999/xlink" xmlns:svgjs="http://svgjs.com/svgjs" width="10" height="10" viewBox="0 0 10 10">

    <path
        d="M1274.39 439.78C1274.2900000000002 439.78 1274.19 439.73999999999995 1274.1100000000001 439.66999999999996L1265.1200000000001 430.66999999999996C1264.96 430.52 1264.96 430.27 1265.1200000000001 430.11999999999995C1265.2700000000002 429.9599999999999 1265.5200000000002 429.9599999999999 1265.67 430.11999999999995L1274.67 439.10999999999996C1274.8200000000002 439.25999999999993 1274.8200000000002 439.50999999999993 1274.67 439.66999999999996C1274.5900000000001 439.73999999999995 1274.49 439.78 1274.39 439.78Z "
        fill="#ffffff"
        fill-opacity="1"
        stroke="#ffffff"
        transform="matrix(1,0,0,1,-1265,-430)"></path>
    <path
        d="M1265.39 439.78C1265.2900000000002 439.78 1265.19 439.73999999999995 1265.1200000000001 439.66999999999996C1264.96 439.50999999999993 1264.96 439.25999999999993 1265.1200000000001 439.10999999999996L1274.1100000000001 430.11999999999995C1274.2600000000002 429.9599999999999 1274.5100000000002 429.9599999999999 1274.67 430.11999999999995C1274.8200000000002 430.2699999999999 1274.8200000000002 430.5199999999999 1274.67 430.66999999999996L1265.67 439.66999999999996C1265.6000000000001 439.73999999999995 1265.5 439.78 1265.39 439.78Z "
        fill="#ffffff"
        fill-opacity="1"
        stroke="#ffffff"
        transform="matrix(1,0,0,1,-1265,-430)"></path>
</svg>
