<svg width="18px" height="18px" viewBox="0 0 18 18" version="1.1" xmlns="http://www.w3.org/2000/svg" xmlns:xlink="http://www.w3.org/1999/xlink">
    <g id="Kildetaster" stroke="none" stroke-width="1" fill="none" fill-rule="evenodd">
        <g id="Edit-mode" transform="translate(-1141.000000, -406.000000)">
            <g id="tooltip_trigger-copy-2" transform="translate(1141.000000, 406.000000)">
                <path d="M9,17 L9,17 C13.418278,17 17,13.418278 17,9 C17,4.581722 13.418278,1 9,1 C4.581722,1 1,4.581722 1,9 C1,13.418278 4.581722,17 9,17 L9,17 Z M9,18 L9,18 C4.02943725,18 0,13.9705627 0,9 C0,4.02943725 4.02943725,0 9,0 C13.9705627,0 18,4.02943725 18,9 C18,13.9705627 13.9705627,18 9,18 L9,18 Z" id="Oval-19" fill="#A8A8A8"></path>
                <path d="M9.27579737,11.0450281 L9.27579737,10.0206379 C10.750469,9.67166979 11.6172608,8.82739212 11.6172608,7.40900563 C11.6172608,5.58536585 10.3114447,5 8.9380863,5 C7.19324578,5 6.18011257,5.88930582 6,7.31894934 L7.65478424,7.57786116 C7.78986867,6.7673546 8.15009381,6.40712946 8.84803002,6.40712946 C9.42213884,6.40712946 9.82739212,6.67729831 9.82739212,7.38649156 C9.82739212,8.59099437 8.67917448,8.89493433 7.58724203,8.98499062 L7.58724203,11.0450281 L9.27579737,11.0450281 Z M9.4108818,12.4971857 C9.4108818,11.9118199 9.07317073,11.5853659 8.40900563,11.5853659 C7.73358349,11.5853659 7.40712946,11.9118199 7.40712946,12.4971857 C7.40712946,13.1050657 7.73358349,13.3977486 8.40900563,13.3977486 C9.08442777,13.3977486 9.4108818,13.0712946 9.4108818,12.4971857 L9.4108818,12.4971857 Z" id="?" fill="#616161"></path>
            </g>
        </g>
    </g>
</svg>